<?xml version="1.0" encoding="UTF-8" standalone="no"?>
<!-- Created with Inkscape (http://www.inkscape.org/) -->
<svg
   xmlns:dc="http://purl.org/dc/elements/1.1/"
   xmlns:cc="http://creativecommons.org/ns#"
   xmlns:rdf="http://www.w3.org/1999/02/22-rdf-syntax-ns#"
   xmlns:svg="http://www.w3.org/2000/svg"
   xmlns="http://www.w3.org/2000/svg"
   xmlns:sodipodi="http://sodipodi.sourceforge.net/DTD/sodipodi-0.dtd"
   xmlns:inkscape="http://www.inkscape.org/namespaces/inkscape"
   width="744.09448819"
   height="1052.3622047"
   id="svg2"
   inkscape:label="Pozadí"
   sodipodi:version="0.32"
   inkscape:version="0.46"
   sodipodi:docname="kresba.svg"
   inkscape:output_extension="org.inkscape.output.svg.inkscape">
  <defs
     id="defs3">
    <inkscape:perspective
       sodipodi:type="inkscape:persp3d"
       inkscape:vp_x="0 : 526.18109 : 1"
       inkscape:vp_y="0 : 1000 : 0"
       inkscape:vp_z="744.09448 : 526.18109 : 1"
       inkscape:persp3d-origin="372.04724 : 350.78739 : 1"
       id="perspective9" />
  </defs>
  <sodipodi:namedview
     id="base"
     pagecolor="#ffffff"
     bordercolor="#666666"
     borderopacity="1.0"
     inkscape:pageopacity="0.0"
     inkscape:pageshadow="2"
     inkscape:zoom="0.35"
     inkscape:cx="375"
     inkscape:cy="520"
     inkscape:document-units="px"
     inkscape:current-layer="layer1"
     showgrid="false" />
  <metadata
     id="metadata6">
    <rdf:RDF>
      <cc:Work
         rdf:about="">
        <dc:format>image/svg+xml</dc:format>
        <dc:type
           rdf:resource="http://purl.org/dc/dcmitype/StillImage" />
      </cc:Work>
    </rdf:RDF>
  </metadata>
  <g
     inkscape:label="Vrstva 1"
     inkscape:groupmode="layer"
     id="layer1">
    <path
       sodipodi:type="star"
       style="fill:#ffff00;fill-rule:evenodd;stroke:#000000;stroke-width:1px;stroke-linecap:butt;stroke-linejoin:miter;stroke-opacity:1"
       id="path2382"
       sodipodi:sides="11"
       sodipodi:cx="137.14286"
       sodipodi:cy="166.6479"
       sodipodi:r1="361.73053"
       sodipodi:r2="180.86527"
       sodipodi:arg1="2.9023611"
       sodipodi:arg2="3.1879604"
       inkscape:flatsided="false"
       inkscape:rounded="0"
       inkscape:randomized="0"
       d="M -214.28572,252.36217 L -43.52802,158.26459 L -204.83831,48.758705 L -10.314797,61.917366 L -86.814292,-117.41577 L 69.715187,-1.1786556 L 102.31453,-193.40204 L 171.15298,-10.990931 L 302.5011,-155.075 L 261.7928,35.595869 L 450.1876,-14.603205 L 312.85714,123.79076 L 498.4846,183.41454 L 308.13343,225.5925 L 432.05815,376.10899 L 249.12143,308.67974 L 271.99817,502.30103 L 154.55702,346.67288 L 69.122589,521.92557 L 54.463733,327.50936 L -112.15704,428.75196 L -19.379517,257.27346 L -214.28572,252.36217 z" />
    <path
       style="fill:none;fill-rule:evenodd;stroke:#000000;stroke-width:1px;stroke-linecap:butt;stroke-linejoin:miter;stroke-opacity:1"
       d="M 480,849.50504 L 94.285714,709.50504 C 94.285714,709.50504 220,523.79075 231.42857,523.79075 C 242.85714,523.79075 508.57143,695.21933 508.57143,695.21933 L 520,792.36218 L 480,849.50504 z"
       id="path2384" />
    <path
       style="fill:#000000;fill-opacity:1;fill-rule:nonzero;stroke:none;stroke-width:1px;stroke-linecap:butt;stroke-linejoin:miter;stroke-opacity:1"
       id="path2386"
       d="M 152.86401,983.92064 C 147.90236,982.22313 143.11526,980.04574 138.14861,978.36629 C 132.69364,976.52172 127.13243,975.00642 121.64827,973.25054 C 100.23113,966.39335 78.82567,959.5056 57.395657,952.68531 C 36.975441,945.5306 15.901743,940.31199 -4.6017321,933.43861 C -21.351183,927.82369 -37.723677,920.87001 -54.054684,914.15957 C -70.804531,907.38458 -87.162533,899.57525 -100.93753,887.74095 C -107.16088,882.50849 -111.22052,875.55983 -115.80014,869.0054 C -119.67158,862.20408 -125.55565,857.03181 -130.34389,850.96262 C -134.39376,845.47913 -135.05237,838.99688 -135.5078,832.42299 C -135.8163,826.23294 -135.76578,820.03263 -135.74456,813.83711 C -135.64319,808.12928 -135.86914,802.41278 -135.53888,796.71215 C -134.74301,791.6344 -132.88694,786.69984 -130.74688,782.03804 C -128.94356,778.19026 -126.76482,774.56211 -124.45261,771.0062 L -85.972489,754.54174 C -88.835851,757.49704 -90.700539,761.12781 -92.697851,764.69375 C -94.773568,769.09848 -96.878048,773.51554 -98.073396,778.26343 C -99.337713,783.70076 -98.272692,789.43849 -98.679565,794.98175 C -98.737892,801.11595 -98.85923,807.25257 -98.692362,813.38597 C -98.40536,819.10611 -98.006452,824.87425 -94.73705,829.78992 C -90.129448,836.04738 -84.481873,841.49548 -80.193016,848.01679 C -75.761066,854.25737 -72.199541,861.14624 -66.492107,866.42805 C -54.281679,878.45535 -39.126458,886.5325 -23.880793,894.09357 C -12.598314,899.41008 -6.1788304,902.61522 5.6333903,907.37867 C 31.469305,917.79738 58.300214,925.37644 84.726839,934.08843 C 118.56323,944.88523 152.50739,955.90655 187.94255,960.1202 L 152.86401,983.92064 z" />
    <path
       style="fill:#000000;fill-opacity:1;fill-rule:nonzero;stroke:none;stroke-width:1px;stroke-linecap:butt;stroke-linejoin:miter;stroke-opacity:1"
       id="path2388"
       d="M -44.743607,776.65549 C -65.217769,763.735 -85.421392,750.12191 -106.84936,738.79235 C -116.50932,733.68486 -126.5274,729.2855 -136.36642,724.53207 C -182.77081,706.1327 -158.89126,714.7906 -208.06189,698.71565 L -186.8641,684.2845 C -136.27116,699.73144 -160.97891,691.51741 -112.70436,708.81657 C -102.16799,713.17456 -91.567417,717.38046 -81.095243,721.89053 C -56.784547,732.36046 -33.1402,744.37428 -8.7355453,754.58972 L -44.743607,776.65549 z" />
    <path
       style="fill:#000000;fill-opacity:1;fill-rule:nonzero;stroke:none;stroke-width:1px;stroke-linecap:butt;stroke-linejoin:miter;stroke-opacity:1"
       id="path2390"
       d="M 16.124401,809.23964 C 26.683622,813.62956 37.561645,817.10353 48.455509,820.5595 C 55.928481,822.54929 63.369883,824.98229 71.023668,826.23651 C 72.909664,826.54556 74.82713,827.03082 76.726996,826.82345 C 78.697732,826.60834 84.083965,823.97189 82.386667,824.99622 C 73.703604,830.2365 64.56944,834.69008 55.660826,839.53701 C 75.997803,825.1865 89.326668,803.77245 100.03225,781.74904 C 104.23394,772.81204 107.35181,763.91238 104.48008,754.21564 C 102.78039,750.27823 97.601529,742.56059 92.666154,746.15812 C 104.3677,739.71071 116.05245,733.23271 127.7708,726.81589 C 128.55794,726.38486 126.09406,727.81898 125.82298,728.67448 C 125.26524,730.43465 125.78252,732.7176 125.95391,734.48324 C 126.02132,735.45144 125.98619,736.4323 126.15614,737.38785 C 126.87105,741.40735 128.85086,747.15993 129.96187,750.66038 C 134.43048,764.73957 139.33058,778.45073 144.85288,792.15454 C 150.94719,806.27597 157.77363,820.13678 166.40254,832.90853 C 173.71854,843.73703 182.39913,853.38996 191.23583,862.96084 C 196.12651,867.14813 205.87451,881.54708 213.68391,880.56366 C 214.38533,880.47533 214.93987,879.91426 215.56786,879.58956 C 203.96639,885.93526 192.3867,892.32095 180.76344,898.62666 C 180.25252,898.90384 181.82673,898.09968 182.22638,897.67759 C 184.33835,895.44698 184.69846,893.23894 187.59087,890.68546 C 200.36668,883.45874 212.97151,875.92102 225.91831,869.0053 C 229.46382,867.11141 240.09727,867.89572 243.04384,867.93982 C 264.07237,868.25455 250.33949,867.80896 273.98432,868.91356 C 301.5961,870.20161 329.29673,870.89852 356.79762,873.84801 C 366.453,875.42976 373.78476,877.7261 375.59284,888.12297 C 375.74185,910.703 342.87983,916.2272 324.19385,920.9323 C 308.22849,924.95236 292.02543,929.56611 276.21165,933.94058 C 196.1597,955.08058 115.1554,972.3595 33.787966,987.57063 C 15.367834,991.61481 -3.3033984,993.72164 -22.020164,995.59612 C -25.060804,995.90064 -33.921516,997.91208 -31.122807,996.68511 C 7.0841329,979.93501 -1.5773264,979.68352 -2.1245626,1014.2837 C 3.3313366,1030.7358 7.470885,1047.6846 14.243135,1063.64 C 28.078655,1096.2365 51.461779,1134.8268 71.065056,1164.3458 C 85.033846,1185.3803 107.14432,1215.3234 124.33606,1234.9166 C 131.20078,1242.7402 138.86175,1249.8276 146.12459,1257.2831 C 152.73894,1262.1913 158.88638,1267.801 165.96763,1272.0076 C 183.63396,1282.5024 208.0794,1288.5224 228.23961,1281.9576 C 231.09629,1281.0273 233.62803,1279.2988 236.32224,1277.9694 C 227.88926,1279.3702 217.62489,1287.6029 211.02329,1282.1719 C 205.57538,1277.69 215.0564,1268.6407 216.62156,1261.7619 C 221.29305,1241.2311 223.09014,1220.1091 224.43462,1199.1468 C 224.67657,1196.1119 224.62075,1193.0384 225.16048,1190.0421 C 227.06942,1179.4445 230.65735,1169.2188 233.29782,1158.7794 C 238.59201,1137.8483 243.12381,1116.7302 248.13173,1095.7297 C 258.28147,1061.1344 268.49805,1026.3858 283.37366,993.4737 C 286.95577,987.27772 291.15734,980.88007 297.57643,977.22924 C 313.68709,968.06635 327.20938,951.11125 345.07826,956.7331 C 350.0888,957.82978 349.79674,964.89075 352.0401,966.94424 C 352.8633,967.69778 353.90656,968.16828 354.83979,968.7803 C 380.41467,981.95383 409.59243,986.14631 437.75239,990.19511 C 461.50252,992.61717 485.35487,997.25747 509.31427,996.81174 C 512.54554,996.57209 515.16252,996.68989 518.16705,995.43926 C 521.79227,993.93026 522.17288,990.76398 525.85597,993.93994 C 527.24378,994.93104 526.87552,996.67822 527.57696,997.95384 C 529.88323,1002.148 533.00539,1005.8687 536.18102,1009.4499 C 548.769,1023.6458 552.23955,1025.5773 567.65699,1038.7631 C 587.52482,1055.2641 608.97745,1069.7168 631.38476,1082.5218 C 636.54025,1085.468 655.91195,1096.0672 662.8475,1098.1647 C 666.4971,1099.2684 670.41883,1099.0737 674.20449,1099.5282 C 666.48981,1103.3681 658.7782,1114.8817 651.06045,1111.048 C 644.82936,1107.9527 659.9095,1100.1932 663.16787,1094.0458 C 668.36374,1084.243 672.56731,1073.9089 676.28614,1063.4561 C 686.26072,1035.4198 692.83023,1006.8943 698.36305,977.69819 C 701.01623,963.69763 702.855,949.55494 705.10098,935.48331 C 709.00264,898.21233 714.94643,860.52328 713.23946,822.90151 C 712.76325,819.92515 713.97814,817.00409 713.82809,814.05131 C 713.3955,805.5389 711.23882,800.16148 708.2653,791.90909 C 702.5397,776.01888 702.54089,776.98628 695.29419,761.77107 C 689.80733,751.40776 683.77375,741.14484 675.58465,732.64238 C 672.82499,729.77712 669.96512,726.6327 665.82396,727.33603 C 665.60811,728.00696 665.39226,728.6779 665.17641,729.34883 L 698.08156,702.99171 C 698.82581,703.17454 699.57005,703.35738 700.31429,703.54021 C 712.05263,710.664 719.84785,732.95455 726.39455,744.13784 C 738.15138,768.70061 728.9283,749.38839 740.56286,773.86689 C 745.11186,783.43773 752.0256,793.78489 749.67487,804.87716 C 739.44979,844.26988 735.09623,885.02593 726.90177,924.83138 C 719.385,966.95394 712.86841,1009.5063 702.73169,1051.1085 C 702.32866,1052.7626 692.71354,1092.2935 686.27967,1097.4293 C 673.40496,1107.7064 657.41403,1113.3127 642.9812,1121.2545 C 639.47891,1120.2018 635.79851,1119.6209 632.47433,1118.0965 C 626.93257,1115.555 607.62507,1102.7873 603.81337,1100.2519 C 582.34227,1085.9704 561.42409,1070.8929 540.45089,1055.8969 C 527.32565,1046.5268 516.44351,1038.9157 503.74668,1029.3198 C 502.83138,1028.6281 491.00052,1020.8445 490.11045,1017.0845 C 490.06526,1016.8936 490.36474,1017.3833 490.49189,1017.5327 C 491.27542,1020.8911 478.41643,1020.4353 476.71362,1020.3284 C 454.17981,1018.2898 432.0724,1012.7779 409.62859,1010.0129 C 379.59215,1005.5776 348.83488,1002.0069 320.37436,990.90805 C 316.68413,988.52833 315.91819,988.95511 314.33737,985.62632 C 313.70311,984.29073 314.04748,982.31532 312.77955,981.29531 C 312.25152,980.87054 311.5751,980.67381 310.97287,980.36305 C 297.29186,978.90931 280.82481,995.74333 335.05873,962.60069 C 336.84702,961.50785 331.29719,964.4853 329.58455,965.69324 C 323.36395,970.08067 322.91205,971.63986 317.94793,977.86211 C 299.71891,1010.1495 287.71906,1045.3167 278.49947,1081.1496 C 275.9445,1091.6648 270.88017,1112.1496 268.66398,1122.712 C 263.89294,1145.4511 265.53783,1139.8489 262.08946,1161.0778 C 260.93676,1168.1741 259.37701,1175.201 258.37841,1182.3242 C 254.99115,1203.9675 251.06325,1225.5155 247.14522,1247.0683 C 245.9239,1253.7868 247.53137,1261.7597 243.42099,1267.2125 C 233.08256,1280.9275 218.2009,1290.5338 205.59086,1302.1944 C 202.96818,1303.0653 200.43829,1304.2941 197.72283,1304.807 C 178.40801,1308.4556 153.98202,1300.4647 138.58014,1289.1311 C 132.05969,1284.333 126.77387,1278.0512 120.87074,1272.5112 C 114.61642,1264.3621 108.00691,1256.4737 102.10778,1248.0639 C 89.377915,1229.9162 65.637673,1191.1247 55.080666,1173.6223 C 26.178816,1125.706 -1.5162496,1077.0758 -29.773797,1028.7809 C -32.01404,1020.13 -40.776493,1010.6717 -36.494524,1002.8281 C -17.134315,967.36448 -5.3378853,974.49134 19.657467,973.34899 C 33.625123,972.71062 43.414967,971.25771 57.709799,969.58645 C 139.48578,958.08717 220.61847,941.63097 299.27807,916.11777 C 306.53698,913.7298 343.37439,901.69438 353.81786,898.00098 C 358.16486,896.46364 370.29054,890.11723 366.73515,893.05305 C 309.98382,939.91458 336.83596,919.32134 338.57816,907.38309 C 338.97727,899.87905 330.60801,897.92004 324.72461,896.47617 C 298.56942,891.86336 271.93745,890.44534 245.43248,889.57444 C 229.44257,889.68702 227.15851,889.29098 211.94484,890.86267 C 189.12756,893.21988 174.07377,905.62489 226.71138,875.60135 C 225.17754,876.14396 224.28823,876.30314 223.01059,877.35187 C 221.8675,878.29016 221.17494,879.40216 220.63785,880.77038 C 213.73508,898.3549 254.45737,864.02678 181.87783,904.49398 C 171.05779,901.92392 165.38233,890.35154 158.6534,882.58038 C 140.86554,860.11214 123.53072,836.82929 113.67663,809.62063 C 107.93005,796.23549 101.99729,782.92661 95.819123,769.73458 C 93.74935,765.31506 90.980813,761.21417 89.24454,756.65331 C 88.919003,755.79819 89.010454,754.83836 88.893411,753.93088 C 85.664264,731.52439 93.377756,736.78432 126.40869,721.01799 C 133.07575,722.73703 138.01623,728.22327 140.75744,734.3729 C 144.3524,746.13014 140.8309,755.14986 135.30842,765.8228 C 123.80322,787.43009 110.66441,809.17416 92.081492,825.41608 C 78.198343,833.36202 64.685362,841.99286 50.432045,849.2539 C 42.888782,853.09666 24.079879,844.07288 16.230258,842.57849 C 4.7147581,839.37613 -6.8133353,836.05288 -18.421051,833.31111 L 16.124401,809.23964 z" />
    <path
       style="fill:#000000;fill-opacity:1;fill-rule:nonzero;stroke:none;stroke-width:1px;stroke-linecap:butt;stroke-linejoin:miter;stroke-opacity:1"
       id="path2392"
       d="M 719.69432,740.90576 C 693.78184,758.14674 665.53409,772.60078 637.619,786.02748 C 629.25535,790.05026 620.43647,793.04923 611.81138,796.47576 C 596.57408,802.52914 581.2548,808.3741 565.97691,814.32432 L 592.33843,793.68485 C 608.31384,787.92199 619.85779,783.89166 635.95331,777.45475 C 644.7199,773.94881 653.02107,769.15733 662.0968,766.55428 C 664.01918,766.00291 656.30832,771.83194 658.16331,771.08458 C 665.12773,768.27868 674.55024,761.2514 681.23527,756.4912 L 719.69432,740.90576 z" />
    <path
       style="fill:#000000;fill-opacity:1;fill-rule:nonzero;stroke:none;stroke-width:1px;stroke-linecap:butt;stroke-linejoin:miter;stroke-opacity:1"
       id="path2394"
       d="M 380.16143,637.1258 C 414.00655,663.21792 453.75475,680.0642 493.03506,696.12671 C 516.69817,704.19466 540.53674,714.99364 565.79829,716.78393 C 555.11161,722.39601 545.47741,730.8108 533.73825,733.62018 C 530.4907,734.39737 535.9606,727.2238 536.11331,723.88805 C 536.54026,714.56183 536.19286,705.1952 535.46563,695.88758 C 533.01169,664.48041 525.59885,612.36348 519.48821,583.97013 C 513.82916,557.6751 506.12416,531.8624 499.44213,505.80854 C 490.18733,479.22135 481.88218,452.28434 471.67772,426.04698 C 462.15221,401.55531 451.41526,377.53599 440.29322,353.72681 C 416.4222,302.62563 388.8481,252.71385 356.81942,206.23406 C 350.79766,197.49532 344.13861,189.21331 337.7982,180.70293 C 333.04701,175.33305 328.56605,169.71139 323.54465,164.5933 C 320.44974,161.4388 312.81573,153.70583 306.77993,153.18327 C 305.4757,153.07036 302.13289,155.59679 303.29613,154.99628 C 338.00889,137.07636 340.87976,126.10289 334.84872,142.43563 C 333.32759,152.791 332.94532,163.68516 336.97512,173.50804 C 340.7634,180.15617 348.13218,179.9441 354.96021,180.40906 C 356.67297,180.63392 362.66772,181.28648 364.21694,182.04721 C 374.0112,186.85659 383.01528,199.74198 388.93632,207.78309 C 394.70404,215.61599 400.1916,223.65138 405.81925,231.58553 C 448.90993,290.42994 497.36128,345.39951 550.27463,395.60036 C 557.39185,402.35272 564.76361,408.83164 572.0081,415.44728 C 584.78559,425.71312 596.63464,437.83099 611.43148,445.33853 C 613.47978,446.37779 619.75041,446.44126 617.87816,447.77178 C 579.70798,474.89751 582.15954,473.52361 587.53851,456.37474 C 587.0066,451.5286 587.03013,446.58876 585.94279,441.83632 C 580.74715,419.1278 564.72882,389.57815 548.50948,372.78443 C 544.81194,368.95594 540.32425,365.97865 536.23164,362.57576 C 526.85198,357.21117 524.94513,355.08678 514.93684,352.7908 C 512.6306,352.26173 505.91348,353.44703 507.87044,352.11701 C 565.87363,312.6958 534.63952,326.21775 541.63577,339.76568 C 543.48947,343.35528 545.94584,346.60007 548.10088,350.01727 C 573.86737,385.48748 610.86892,409.06737 647.84385,431.29072 C 657.32011,438.35358 677.76669,445.21853 683.58261,456.54735 C 685.19837,459.69468 685.83057,463.47419 685.46332,466.99293 C 684.42561,476.93565 676.50169,487.09834 671.66438,494.87365 C 659.50098,510.19889 648.97543,527.86003 633.51949,540.32167 C 615.94583,554.49077 574.70319,573.36613 561.32031,578.71188 C 551.60976,582.59074 541.01534,583.71886 530.86286,586.22235 C 501.7372,591.5294 472.56209,598.86636 442.875,600.55078 C 427.09165,601.44632 399.61743,600.18245 384.06257,598.50625 C 374.39737,597.46472 364.83488,595.62542 355.22104,594.18501 C 346.66733,591.11777 336.97084,590.2418 329.55991,584.98328 C 310.56659,571.50635 303.68169,548.7388 300.43489,527.07289 C 295.55387,494.50184 299.20062,458.13996 307.79965,426.72878 C 314.30381,402.96992 324.47944,380.37218 332.81933,357.19388 C 356.31285,302.26116 369.13348,268.70507 397.37243,216.42407 C 407.97117,196.80178 418.7952,177.18982 431.65945,158.9723 C 443.16843,142.67403 456.34502,127.52527 470.25131,113.21775 C 497.80237,84.871771 513.71264,76.005965 544.9781,54.571221 C 579.10086,35.581811 592.17792,25.643866 624.43973,14.098761 C 637.94704,9.2650778 654.94982,4.1690506 669.60423,7.1349399 C 672.01939,7.6237412 674.20451,8.9027576 676.50464,9.7866664 C 677.97242,11.169962 680.2886,12.017113 680.90798,13.936553 C 684.69395,25.66915 672.64414,38.248189 667.63222,45.684859 C 659.72145,57.422854 650.95462,68.56234 642.81347,80.14174 C 608.33591,129.18021 609.74201,128.27182 574.67966,182.53368 C 531.48838,251.55015 492.80037,323.20092 453.30609,394.34672 C 439.60158,419.03428 425.64751,443.58321 412.02046,468.31361 C 378.26288,529.57692 375.17765,536.09934 344.27871,594.89876 C 337.64966,608.3227 312.4331,655.16778 309.35521,674.57509 C 308.30657,681.18723 308.5035,689.50123 313.18003,694.29186 C 318.05885,699.28972 326.53682,699.50901 333.51886,699.3283 C 361.96831,698.59195 397.43583,684.30255 422.78525,676.036 C 475.4677,656.4507 526.47436,632.80824 577.29515,608.91233 C 591.33746,602.30965 625.05786,585.95344 641.17246,579.0939 C 647.69297,576.3183 654.40632,574.01956 661.02324,571.48239 C 665.6751,571.34504 670.54588,569.65338 674.97881,571.07035 C 685.99748,574.59243 688.25783,591.26005 689.0352,600.54774 C 690.13444,613.68117 688.12686,606.32271 690.03648,612.57298 C 678.00418,614.61956 663.9294,625.72472 653.93957,618.71273 C 646.19726,613.2783 657.28289,600.09202 659.00369,590.79066 C 662.87939,569.8415 668.09308,540.78722 673.41269,520.2225 C 676.25458,509.23618 679.07134,498.18376 683.22618,487.62381 C 686.95664,478.14248 692.39479,469.42535 696.97909,460.32612 C 702.85482,453.16339 707.78361,445.10532 714.60627,438.83794 C 730.92978,423.84294 771.28622,407.98742 787.66854,407.64572 C 798.65585,407.41655 808.28304,416.26227 816.61376,423.42973 C 846.53308,449.17125 873.7425,495.35743 894.4209,525.88403 C 941.48027,602.78082 986.07173,681.13393 1030.9423,759.31298 C 1056.9566,804.6383 1083.6357,849.57392 1108.5179,895.53199 C 1110.083,919.33985 1113.2479,916.88272 1064.0872,923.02988 C 1062.1837,923.26791 1032.8139,902.89217 1032.2142,902.537 C 1016.4509,893.2012 1019.6764,895.10132 1003.5789,893.1795 C 1000.3805,895.14774 990.31027,899.86523 993.98366,899.08421 C 1002.7962,897.21052 1010.4793,888.39577 1019.3754,889.8209 C 1023.7236,890.51747 1016.7258,898.27058 1016.1864,902.64102 C 1015.8981,904.97724 1014.4845,921.70916 1020.3198,924.07369 C 1023.0443,925.17767 1025.7282,921.76814 1028.4325,920.61537 C 1022.847,921.66682 1011.4689,929.44948 1011.6762,923.76973 C 1012.0357,913.91852 1023.9597,908.29569 1029.1869,899.93795 C 1035.0393,890.58061 1040.1953,880.77261 1044.8321,870.75709 C 1052.6219,853.93087 1063.8544,822.97003 1067.5778,804.75182 C 1069.5642,795.03256 1069.6106,785.01589 1070.627,775.14793 C 1068.9786,768.0249 1067.3301,760.90188 1065.6816,753.77886 L 1094.8433,738.32011 C 1095.649,746.21278 1096.4546,754.10545 1097.2603,761.99812 C 1095.7207,772.28512 1094.883,782.70192 1092.6416,792.85913 C 1088.5261,811.50904 1078.5323,841.25436 1071.0982,858.89533 C 1067.9945,866.26039 1050.4172,903.75376 1042.9603,910.74362 C 1029.2611,923.58478 1012.5641,932.79638 997.36597,943.82276 C 993.82513,943.50392 989.52561,945.07955 986.74345,942.86623 C 982.08856,939.16308 982.68524,922.42043 982.91759,918.79449 C 983.21685,914.12415 981.7211,908.3077 984.9282,904.89946 C 996.07928,893.04903 1010.2784,884.42387 1023.7909,875.35785 C 1026.8164,873.32791 1030.6976,873.03526 1034.151,871.87397 C 1038.2355,873.03933 1042.526,873.63832 1046.4044,875.37006 C 1056.8509,880.03449 1067.7142,889.08144 1077.6703,894.33101 C 1083.0714,897.1788 1095.0844,895.44054 1094.5181,901.52002 C 1093.6456,910.88569 1082.7689,916.55154 1075.0938,921.98926 C 1071.0943,924.82279 1080.4086,913.75212 1083.066,909.63355 C 1080.8495,898.90666 1079.8112,887.867 1076.4163,877.45286 C 1066.4539,846.89206 1038.5026,788.14711 1025.6768,762.33611 C 985.52282,681.52855 941.20295,602.57009 886.05719,530.86865 C 854.90033,495.92556 832.13514,464.20372 792.79701,439.18486 C 783.39968,433.2082 769.94499,434.36569 761.76212,426.81116 C 758.42086,423.72647 769.60106,413.55739 765.05362,413.57181 C 750.83502,413.61692 730.76364,440.4882 723.87791,448.23377 C 718.79141,457.37086 712.76449,466.04457 708.61839,475.64503 C 700.11537,495.33408 693.99842,522.63724 690.70581,543.60635 C 688.9825,554.58129 687.74897,565.65202 687.16697,576.74617 C 686.73665,584.94899 692.15026,594.4954 687.67485,601.38321 C 679.37471,614.15742 664.11305,620.69984 652.33215,630.35816 C 656.45466,625.68751 655.49664,627.89875 655.20321,618.29975 C 654.98059,611.01739 653.11368,596.29164 644.62227,593.1213 C 641.25555,591.8643 637.44068,592.83108 633.84989,592.68597 C 628.26368,594.50662 622.58998,596.07801 617.09126,598.14791 C 601.23802,604.11559 574.25434,616.31154 560.07881,622.58121 C 509.80372,644.81728 459.60784,667.27828 408.37255,687.25435 C 389.57018,694.01223 371.09979,701.77688 351.96545,707.52798 C 346.97499,709.02793 295.79628,728.95827 283.4801,709.57853 C 279.16495,702.78856 282.97958,693.16586 285.50839,685.52849 C 291.88194,666.27949 323.94236,613.90772 331.76421,600.49638 C 365.32031,542.92077 372.41704,531.29623 406.16772,470.9313 C 458.61849,377.12027 509.10852,282.22377 561.48199,188.36938 C 618.4435,89.502695 568.87113,174.61671 619.11509,90.53046 C 625.32219,80.14252 631.71868,69.856477 637.4792,59.214404 C 638.60764,57.129694 647.94015,41.237205 646.31688,35.185943 C 645.93465,33.761042 644.26137,33.069183 643.23362,32.010804 C 641.47493,31.206717 639.82548,30.09892 637.95755,29.598544 C 615.76846,23.654582 587.02908,38.820321 566.85449,46.009233 C 532.77005,68.235539 515.59549,77.263847 485.40635,106.81234 C 470.51978,121.383 456.39657,136.86694 443.92683,153.55285 C 430.05038,172.1211 418.02615,192.06015 406.61847,212.23936 C 373.78813,270.31337 368.40536,290.04897 343.76562,352.03888 C 337.56355,374.08365 329.68484,395.72419 325.15942,418.17321 C 319.04,448.52947 317.37965,483.29329 324.30645,513.91886 C 328.71333,533.40305 338.19081,555.48114 355.52528,567.47909 C 362.71217,572.45345 371.89031,573.62471 380.07282,576.69752 C 389.49698,578.16027 398.85809,580.11236 408.34528,581.08578 C 457.23056,586.10162 506.14431,579.09605 553.83395,568.60363 C 564.44026,565.59119 574.71288,560.93922 585.65289,559.56632 C 587.54831,559.32846 581.71963,565.55623 583.50621,564.87996 C 606.68379,556.10649 625.23367,528.46684 639.18054,509.26968 C 643.7926,501.26863 654.68964,486.76749 650.76395,476.23733 C 646.24245,464.109 628.48283,457.27047 619.69219,449.39739 C 583.45026,424.89956 545.28542,402.20651 515.97999,369.14112 C 512.96661,365.86716 509.60601,362.88166 506.93985,359.31924 C 505.01633,356.74911 499.91183,353.00974 502.30929,350.87486 C 534.87146,321.87919 540.80232,324.92905 566.7172,343.65215 C 570.66805,347.41693 575.02845,350.79413 578.56975,354.94647 C 582.55045,359.61402 585.81558,364.85407 589.1761,369.98622 C 603.15446,391.33383 615.77738,414.18571 622.47259,438.93083 C 624.7313,462.16575 626.97274,453.41072 584.41735,469.65396 C 582.37522,470.43344 580.78455,467.2066 579.11484,465.79595 C 572.87474,460.52399 565.90506,453.10247 560.57165,447.32142 C 555.69087,442.031 550.94651,436.61633 546.13394,431.26379 C 491.82581,368.92129 438.26606,305.83184 379.95138,247.13307 C 369.11129,236.18283 347.25692,210.63459 330.74864,205.40329 C 329.10222,204.88156 323.4158,204.36018 321.67556,204.17484 C 313.08854,203.34769 304.99435,202.16108 301.09761,193.45734 C 297.2879,182.66052 297.73329,171.37196 298.30146,160.05835 C 298.49974,158.15823 297.38635,155.52836 298.89632,154.35798 C 310.62999,145.26326 323.45983,137.59405 336.48172,130.46497 C 337.66226,129.81866 339.23213,130.90001 340.33482,131.67168 C 351.04678,139.16803 355.72356,156.36138 363.01354,166.03077 C 418.6931,274.44026 465.70179,387.09159 506.74911,501.81348 C 515.3691,526.84573 524.50307,551.70686 532.60908,576.91025 C 535.07274,584.5703 558.58666,665.54092 563.08308,681.31395 C 565.48606,689.74338 568.09013,698.12345 570.12555,706.6491 C 571.07819,710.63932 575.09116,716.0714 572.0343,718.80728 C 560.97651,728.70396 545.92874,732.92732 532.87596,739.98734 C 509.41064,734.69 487.81423,723.56037 465.76664,714.2971 C 443.18089,704.13381 420.53657,694.14663 398.16629,683.51202 C 384.4808,677.00607 371.47093,670.43042 357.58425,664.42348 C 353.54725,662.6772 349.39927,661.19958 345.30678,659.58763 L 380.16143,637.1258 z" />
    <path
       style="fill:#ff0000"
       d="M 289.85714,778.53995 C 186.92857,740.97433 101.52837,709.80698 100.07891,709.27918 C 95.951886,707.77638 206.76166,550.31481 224.26109,532.81538 C 228.39383,528.68264 232.02254,527.51227 236.43186,528.88995 C 245.63557,531.76558 312.90903,572.58621 321.44206,580.47295 C 325.4566,584.1835 330.27803,587.21933 332.15634,587.21933 C 337.45797,587.21933 336.70066,589.04335 318.39874,620.35533 C 281.97609,682.6693 274.62691,705.08844 287.63574,714.20018 C 299.00203,722.16141 318.76351,719.61004 364.7902,704.23895 L 407.93586,689.83007 L 453.21889,710.03793 C 478.1246,721.15227 501.44991,731.36661 505.05291,732.73647 C 510.91883,734.96658 511.9496,738.16984 514.90983,763.3661 L 518.21583,791.50504 L 506.28363,808.6479 C 499.72094,818.07647 491.09026,830.56338 487.10431,836.39661 C 483.1184,842.22987 479.21429,846.96613 478.42857,846.92175 C 477.64286,846.8773 392.78571,816.10553 289.85714,778.53993 L 289.85714,778.53995 z"
       id="path2396" />
    <path
       style="fill:#ff0000"
       d="M 315.57143,692.93361 C 306.06089,683.42307 308.72269,672.10347 331.887,623.54967 C 342.05789,602.2309 346.28277,595.99335 349.68349,597.27524 C 356.87471,599.98598 449.85714,659.8247 449.85714,661.7419 C 449.85714,662.70281 446.96429,664.80427 443.42857,666.41187 C 436.02763,669.77693 418.17154,662.05581 394.67923,645.33235 L 380.92989,635.54461 L 370.39354,641.88407 C 364.59851,645.37073 356.21263,650.73401 351.7582,653.80241 L 343.65929,659.38135 L 368.90106,671.51053 C 393.22677,683.19955 393.86709,683.75041 386.54417,686.68913 C 376.66643,690.65307 337.895,698.6479 328.54903,698.6479 C 324.55426,698.6479 318.71429,696.07647 315.57143,692.93361 z"
       id="path2398" />
    <path
       style="fill:#ff0000"
       d="M 476.04671,687.36878 C 461.3796,681.26178 448.66557,675.55158 447.79334,674.67935 C 446.92111,673.8071 449.60483,671.80184 453.75711,670.22313 C 460.37117,667.70847 464.13797,669.15027 484.15337,681.85773 C 517.04349,702.73921 515.49331,703.79298 476.04674,687.36873 L 476.04671,687.36878 z"
       id="path2400" />
    <path
       style="fill:#ff0000"
       id="path2402"
       d="M -283.96131,1480.9024 C -286.64558,1500.8034 -286.36926,1520.9109 -286.27247,1540.9426 C -287.04021,1567.5247 -289.02086,1594.0453 -289.83652,1620.6346 L -322.76186,1637.1574 C -320.35863,1610.7975 -318.19427,1584.3359 -319.44181,1557.8432 C -319.3493,1538.6011 -318.93632,1519.2517 -321.75297,1500.1582 L -283.96131,1480.9024 z" />
    <path
       style="fill:#ff0000"
       id="path2404"
       d="M -184.15262,1539.1903 C -194.91543,1552.4478 -237.27968,1571.2792 -239.36105,1572.3882 C -242.0821,1573.838 -263.46378,1584.0984 -265.82122,1585.2337 C -284.04505,1592.6302 -301.14568,1605.697 -319.92575,1611.4526 C -326.50916,1612.4097 -330.39725,1607.7191 -328.40075,1601.5519 C -321.02006,1584.1781 -307.32047,1582.8426 -284.23875,1574.0325 C -281.06015,1572.8192 -277.55055,1575.2871 -274.2174,1575.9695 C -269.17214,1577.0023 -264.14214,1578.1083 -259.10451,1579.1777 C -228.38068,1586.3221 -197.2218,1591.605 -166.69943,1599.6027 C -164.26785,1600.2897 -161.83626,1600.9767 -159.40468,1601.6637 L -192.27721,1623.9709 C -194.43334,1623.1325 -196.58947,1622.294 -198.7456,1621.4555 C -227.72734,1611.0576 -257.99972,1604.2878 -288.42924,1599.8247 C -294.07287,1599.2953 -299.69744,1598.4908 -305.36013,1598.2364 C -309.05971,1598.0702 -319.11691,1601.1501 -316.4652,1598.565 C -307.96259,1590.2758 -296.28766,1586.0382 -286.28451,1579.6396 C -285.67458,1579.2494 -287.6901,1580.0898 -288.26678,1580.5276 C -289.43391,1581.4137 -289.70426,1582.6955 -290.18872,1583.9692 C -291.99634,1587.1817 -293.7095,1587.3872 -287.67367,1586.4599 C -270.11356,1580.5597 -254.58611,1569.6154 -237.47527,1562.6169 C -232.87507,1560.3732 -228.25804,1558.1636 -223.67467,1555.8857 C -219.03291,1553.5787 -205.73799,1545.6436 -209.80062,1548.8627 C -216.74682,1554.3667 -224.89482,1558.1548 -232.42868,1562.8222 C -234.2553,1563.9538 -228.71026,1560.6622 -226.92245,1559.4702 C -225.71122,1558.6626 -224.088,1557.1809 -222.92872,1556.1561 L -184.15262,1539.1903 z" />
    <path
       style="fill:#ff0000"
       id="path2406"
       d="M -141.0924,1583.1625 C -138.62888,1589.0484 -132.03942,1591.1387 -126.54049,1593.2402 C -117.952,1595.5404 -108.7337,1598.2832 -99.948245,1595.7407 C -84.059304,1586.9808 -120.19222,1607.3939 -130.44821,1612.9791 C -131.36431,1613.478 -128.74709,1611.7547 -128.01308,1611.0135 C -125.76319,1608.7416 -124.52435,1605.8013 -123.1902,1602.9621 L -85.362185,1585.8458 C -89.316707,1593.3107 -84.216909,1583.4398 -88.114185,1591.8738 C -95.774836,1608.452 -115.75714,1616.4573 -133.01663,1620.617 C -142.33458,1621.1211 -151.46331,1618.6572 -160.3,1615.9085 C -167.21169,1613.1909 -174.4003,1610.4259 -178.22408,1603.6125 L -141.0924,1583.1625 z" />
    <path
       style="fill:#ff0000"
       id="path2410"
       d="M -55.442537,1467.2347 C -57.674331,1472.7367 -58.051635,1478.77 -58.498162,1484.6264 C -59.290325,1495.674 -59.150128,1506.7564 -59.115711,1517.8234 C -59.108635,1529.4286 -59.228078,1541.0325 -59.218235,1552.638 C -59.297897,1562.9262 -59.054693,1573.2109 -58.82838,1583.4955 C -58.681558,1589.8397 -58.630693,1596.1853 -58.606165,1602.531 C -58.387571,1607.9957 -58.990296,1613.5174 -58.323717,1618.9532 C -58.16274,1619.4061 -58.001763,1619.859 -57.840786,1620.3119 L -94.817866,1640.4393 C -94.971396,1639.7661 -95.124926,1639.0929 -95.278456,1638.4197 C -96.110108,1632.8006 -95.519502,1627.0869 -95.679367,1621.4207 C -95.654542,1614.9998 -95.602435,1608.5788 -95.457528,1602.1593 C -95.234767,1591.7448 -94.993825,1581.3303 -95.079924,1570.9124 C -95.08015,1559.3433 -95.220525,1547.7762 -95.207947,1536.2074 C -95.145219,1525.1666 -95.018326,1514.1259 -95.144659,1503.0847 C -95.044828,1497.116 -94.953561,1491.137 -93.812418,1485.2546 L -55.442537,1467.2347 z" />
    <path
       style="fill:#ff0000"
       id="path2412"
       d="M -84.418808,1625.5341 C -71.975669,1611.0307 -52.123082,1605.3304 -36.203514,1595.3058 C -22.418977,1588.439 -30.1242,1592.219 -67.49815,1613.4343 C -68.175104,1613.8186 -66.206414,1612.5653 -65.557605,1612.1352 C -63.498659,1610.7703 -61.805167,1609.3007 -60.023382,1607.5842 C -55.479659,1603.38 -52.067471,1598.3302 -49.243297,1592.8711 C -48.571729,1590.5161 -45.163044,1586.5326 -46.39734,1583.8227 C -46.530619,1583.5301 -47.146746,1583.9292 -48.42723,1584.5751 C -49.4696,1585.4069 -50.452648,1586.319 -51.55434,1587.0705 C -53.160468,1588.166 -58.231961,1591.0544 -56.535072,1590.1055 C -19.154399,1569.2021 -20.261315,1568.6077 -33.819262,1577.7333 C -35.661775,1578.9735 -37.492684,1580.2312 -39.306394,1581.5131 C -40.98577,1582.7001 -42.633928,1583.9306 -44.297695,1585.1394 C -45.769123,1586.2009 -47.240552,1587.2625 -48.71198,1588.3241 L -86.346297,1603.149 C -84.77118,1602.077 -83.196062,1601.0051 -81.620945,1599.9332 C -63.558353,1586.6008 -45.161528,1576.437 -25.300793,1564.829 C -23.409245,1563.7235 -21.560658,1562.4997 -19.521802,1561.6977 C -17.827361,1561.0312 -15.974463,1560.8743 -14.200793,1560.4625 C -13.165708,1560.9255 -11.989353,1561.1538 -11.095539,1561.8515 C -6.5926499,1565.3666 -9.7193848,1571.7573 -11.413789,1575.7988 C -14.251373,1581.4027 -16.947378,1587.0943 -21.518641,1591.5628 C -34.162289,1605.5775 -51.658959,1612.5533 -68.605756,1621.5074 C -82.493346,1628.5768 -70.561799,1622.5606 -38.001588,1603.5208 C -31.911724,1599.9597 -43.361651,1606.7896 -44.36817,1607.5001 C -44.821008,1607.8198 -45.217863,1608.2122 -45.642709,1608.5683 L -84.418808,1625.5341 z" />
    <path
       style="fill:#ff0000"
       id="path2414"
       d="M 38.921142,1567.7823 C 34.714289,1571.85 29.942838,1575.2543 25.47664,1579.0296 C 21.046868,1582.5475 16.687944,1586.1253 12.503575,1589.9341 C 12.422195,1589.8699 11.168511,1589.0409 12.02665,1588.7372 C 12.470578,1588.5802 12.934613,1588.9926 13.373849,1589.1624 C 14.675356,1589.6653 15.944932,1590.2483 17.245373,1590.754 C 19.257186,1591.5364 29.791959,1595.4096 30.834906,1595.7943 C 44.708832,1601.2319 59.352461,1604.3729 73.249735,1609.7115 C 74.537157,1610.2187 75.824579,1610.7259 77.112001,1611.2331 L 42.892659,1634.0305 C 41.712684,1633.4762 40.532708,1632.9219 39.352732,1632.3676 C 26.149999,1626.4972 12.209868,1622.4068 -1.4566925,1617.7871 C -4.4004721,1617.0084 -7.3442518,1616.2296 -10.288031,1615.4508 C -12.363444,1614.8737 -14.432293,1614.2724 -16.514269,1613.7195 C -20.975036,1612.5347 -25.314329,1612.2226 -26.127034,1606.9101 C -23.936191,1602.0377 -16.854088,1597.9612 -12.779469,1594.5709 C -8.7223297,1590.9191 -4.4459088,1587.4905 -0.2881964,1584.0234 L 38.921142,1567.7823 z" />
    <path
       style="fill:#ff0000"
       id="path2418"
       d="M 61.752973,1555.1881 C 61.360085,1560.2921 61.404234,1565.4204 61.386996,1570.5364 C 61.490803,1574.3119 61.412042,1578.0432 60.834928,1581.7754 L 23.252302,1600.0313 C 24.082244,1596.4905 24.710205,1593.0938 24.327289,1589.4193 C 24.310414,1584.4279 24.363982,1579.4222 23.961313,1574.444 L 61.752973,1555.1881 z" />
    <path
       style="fill:#ff0000"
       id="path2420"
       d="M 204.55746,1475.8061 C 201.78539,1481.8528 199.43612,1488.3673 199.05759,1495.0954 C 198.84052,1498.9537 199.23374,1502.8221 199.32182,1506.6855 C 202.54411,1532.7196 210.10735,1557.9084 220.05779,1582.1024 C 223.88572,1592.6152 229.85941,1602.0295 235.1113,1611.8142 L 199.07469,1632.2839 C 194.53452,1621.9041 189.66784,1611.6565 186.5385,1600.712 C 178.17053,1575.6538 171.27902,1550.0709 165.77432,1524.2363 C 163.85978,1514.3974 161.51419,1503.3636 166.18758,1493.826 L 204.55746,1475.8061 z" />
    <path
       style="fill:#ff0000"
       id="path2422"
       d="M 247.95128,1568.5646 C 247.46261,1568.8596 247.00273,1569.2087 246.48526,1569.4496 C 244.2199,1570.5044 234.57024,1575.8564 239.21201,1573.214 C 270.97464,1555.1325 282.35814,1547.5362 268.34924,1556.7634 C 253.59502,1566.1983 238.00999,1574.3452 222.95263,1583.2167 C 212.23272,1589.5327 244.48853,1570.7479 255.33358,1564.6493 C 256.93191,1563.7505 252.40396,1566.8683 251.07563,1568.1325 C 248.46685,1571.5393 246.51964,1576.2797 247.97543,1580.5369 C 263.94483,1594.7558 282.16478,1606.4833 299.92342,1618.3226 C 332.38436,1638.3379 366.4463,1655.5387 399.7698,1674.04 L 367.49932,1694.8066 C 337.33844,1672.9566 305.37534,1653.8083 272.74954,1635.8666 C 265.5528,1631.8046 258.43724,1627.5953 251.1593,1623.6806 C 245.11756,1620.4308 238.91345,1617.4924 232.80048,1614.3787 C 225.49393,1610.657 216.60064,1607.4589 211.27728,1600.8587 C 209.25984,1595.3881 210.27846,1589.6267 212.74095,1584.4158 C 222.14945,1570.6046 243.08022,1564.4551 255.01682,1557.3461 C 265.56446,1551.0644 233.80298,1569.7086 223.1664,1575.8385 C 220.86351,1577.1657 232.1816,1570.3217 230.02158,1571.7657 C 246.31021,1560.7055 263.19296,1550.0521 281.42671,1542.5576 L 247.95128,1568.5646 z" />
    <path
       style="fill:#ff0000"
       id="path2424"
       d="M 333.18154,1583.7596 C 332.12479,1589.9211 336.70716,1593.286 340.998,1596.8073 C 347.67533,1601.4775 355.26342,1605.7154 363.44019,1606.7737 C 364.8168,1606.5617 367.69012,1606.2133 369.03519,1605.6516 C 369.79109,1605.3359 371.82906,1603.941 371.11473,1604.342 C 306.88309,1640.3968 331.28581,1630.9715 340.39738,1620.3372 L 378.64403,1603.5721 C 370.02862,1620.5248 348.37779,1632.3707 329.55906,1630.3221 C 321.15116,1627.8793 313.2209,1623.7067 306.08456,1618.6643 C 301.11336,1614.5436 295.60779,1609.9973 295.38988,1603.0154 L 333.18154,1583.7596 z" />
    <path
       style="fill:#ff0000"
       id="path2426"
       d="M 396.05046,1494.591 C 398.05381,1515.8147 401.82866,1536.781 406.16926,1557.6333 C 409.08444,1571.1776 412.44716,1584.6448 417.05192,1597.7164 L 382.23319,1616.7066 C 379.0461,1602.8199 376.70263,1588.757 374.21293,1574.7315 C 370.2091,1554.5496 366.09256,1534.387 358.91878,1515.0411 L 396.05046,1494.591 z" />
    <path
       style="fill:#ff0000"
       id="path2428"
       d="M 435.3252,1565.6111 C 435.96233,1565.6565 436.65695,1565.4789 437.23658,1565.7473 C 440.51957,1567.2674 443.36024,1569.6043 446.48577,1571.4263 C 452.25143,1574.7874 457.96504,1578.109 463.54457,1581.7743 C 471.06714,1585.9853 477.1348,1591.1644 480.16896,1599.3199 C 481.77089,1605.2162 482.00933,1611.2936 480.68447,1617.2417 C 475.28544,1634.8499 452.32658,1653.28 434.02824,1646.5134 C 428.22934,1644.5568 422.34313,1642.5392 416.95391,1639.6099 C 413.50004,1637.3375 410.59537,1634.3731 407.6631,1631.4891 L 442.92027,1609.7459 C 445.72145,1612.2855 448.51536,1614.8939 451.86066,1616.7164 C 457.0615,1619.2644 462.41784,1621.6431 468.1584,1622.6496 C 483.83165,1621.8896 469.90422,1622.1865 436.54737,1642.3412 C 435.8782,1642.7455 438.13265,1642.126 438.81625,1641.7466 C 441.2321,1640.4058 442.27364,1637.4542 443.11114,1635.0497 C 445.06205,1629.9824 444.75126,1624.7014 443.72122,1619.4148 C 441.53659,1612.075 435.99884,1607.5075 429.70432,1603.4241 C 421.38828,1597.7002 411.44162,1590.521 401.01109,1590.5418 L 435.3252,1565.6111 z" />
    <path
       style="fill:#ff0000"
       id="path2430"
       d="M 510.27175,1584.3775 C 507.3444,1590.9462 504.40514,1597.516 501.87238,1604.2493 C 500.81801,1608.1265 500.34105,1612.1031 504.39974,1607.3858 C 518.80789,1599.167 482.9714,1619.7228 472.19402,1625.7798 C 471.56102,1626.1356 473.41014,1624.9755 473.94674,1624.4863 C 475.97168,1622.6402 477.2828,1620.395 478.56711,1618.0188 C 481.63571,1610.7506 483.33078,1602.9759 485.06438,1595.3017 C 485.74829,1592.1841 487.55059,1584.8733 482.13266,1585.6474 C 470.47502,1594.4578 459.85593,1598.2365 512.6652,1568.8531 C 513.56539,1568.3522 510.97249,1570.0318 510.17896,1570.6887 C 508.16013,1572.3599 507.50303,1573.2522 505.74094,1575.2269 C 501.73661,1580.0051 498.78895,1585.3579 497.0529,1591.3265 C 496.06938,1595.6374 499.00199,1596.683 502.3939,1598.3137 C 506.09867,1601.1173 509.98199,1603.3721 514.46459,1604.6301 C 522.16576,1606.3614 530.06798,1604.4809 537.75079,1603.458 C 547.13084,1600.9334 556.87653,1599.8986 566.25544,1597.4506 C 580.29777,1590.627 574.73841,1593.254 535.85635,1614.8258 C 534.5454,1615.5531 538.20235,1612.9285 539.16426,1611.7786 L 577.33507,1594.7728 C 570.65645,1611.3009 550.19632,1617.9603 533.43028,1622.4122 C 524.09617,1624.1209 514.75468,1625.7752 505.44975,1627.6448 C 497.02561,1628.9636 488.26957,1630.8106 479.93413,1628.0657 C 475.4091,1626.3555 471.3084,1623.9168 467.27404,1621.2614 C 462.56724,1618.474 458.74342,1615.3507 459.55894,1609.28 C 460.98299,1602.7188 463.63218,1596.8661 467.60921,1591.4253 C 479.20948,1576.5558 497.43168,1559.8556 516.72834,1561.8778 C 523.08579,1565.1639 523.937,1570.7893 522.1763,1577.4261 C 520.39646,1585.1998 518.51405,1592.9586 516.28583,1600.61 C 510.6015,1619.4436 488.40061,1626.508 471.27053,1633.307 C 464.62117,1633.2241 462.73639,1627.4523 464.50596,1621.6689 C 466.80861,1615.177 469.81064,1608.9686 471.90187,1602.3974 L 510.27175,1584.3775 z" />
    <path
       style="fill:#ff0000"
       id="path2432"
       d="M 545.44502,1531.5863 C 546.93334,1533.362 548.25107,1535.2959 549.90999,1536.9133 C 558.89315,1545.6719 569.55787,1552.896 579.19778,1560.8853 C 591.73781,1571.2782 590.57075,1570.6362 602.64018,1582.4177 C 618.4848,1597.5567 633.1288,1613.9081 646.19385,1631.4985 L 611.40932,1651.845 C 600.74533,1633.2067 587.88397,1616.0185 572.30545,1601.1449 C 560.87636,1590.8886 549.33185,1580.8422 536.88174,1571.8173 C 529.54722,1566.5006 523.46326,1562.8505 516.0656,1557.8739 C 514.04825,1556.5167 512.07835,1555.0903 510.08472,1553.6986 L 545.44502,1531.5863 z" />
    <path
       style="fill:#ff0000"
       id="path2434"
       d="M 612.58539,1637.4897 C 613.85286,1634.5767 614.62241,1633.0183 615.42719,1629.4377 C 619.49335,1611.3464 620.72519,1592.52 623.39882,1574.1975 C 625.96729,1556.1944 628.20388,1538.1357 631.00288,1520.1654 C 631.02164,1519.7247 630.67005,1519.051 631.05916,1518.8432 C 669.97947,1498.055 672.03058,1488.1599 668.46532,1515.1027 C 667.36294,1524.8951 667.11416,1534.7634 666.97312,1544.6095 C 666.96772,1546.1811 666.8487,1550.4973 667.22477,1552.1615 C 669.50269,1562.2416 679.98752,1572.7769 686.61204,1580.1169 C 697.91584,1591.9725 710.20194,1603.092 725.40014,1609.5674 C 728.43336,1610.5783 731.86811,1611.9393 734.9044,1610.0942 C 735.57541,1609.6864 737.34009,1608.1368 736.65152,1608.5142 C 701.98882,1627.5106 695.62971,1638.7082 705.50244,1623.511 C 714.84005,1602.4566 719.10335,1579.642 724.07232,1557.301 C 738.10371,1494.2143 727.88052,1541.0503 742.93892,1471.2406 C 761.52774,1396.4345 750.87607,1435.0991 775.3946,1355.3858 L 789.32412,1348.766 C 769.32419,1426.2391 777.84172,1388.6802 763.29539,1461.3336 C 760.97865,1476.4231 758.41369,1491.4766 756.34518,1506.6022 C 751.79267,1539.8914 750.92037,1573.8765 742.49777,1606.5339 C 742.07921,1608.1867 742.62124,1610.4899 741.24208,1611.4924 C 729.41196,1620.0915 716.52171,1627.1374 703.92641,1634.5708 C 700.25597,1636.737 694.63145,1633.0835 691.42766,1631.9279 C 677.08171,1623.7105 665.61094,1611.6374 654.28727,1599.7599 C 647.73593,1592.889 633.69429,1580.2533 630.63785,1571.1747 C 630.07778,1569.5111 630.37093,1564.776 630.41887,1563.1262 C 630.74485,1553.1646 631.37254,1543.2257 631.97372,1533.2772 C 633.16199,1509.4724 632.03923,1522.5738 669.94996,1502.0249 C 670.34955,1501.8083 669.10288,1502.3548 668.67934,1502.5197 C 665.99139,1507.6262 664.48679,1513.07 663.07884,1518.6679 C 659.80203,1531.6963 657.56947,1544.955 655.7509,1558.2576 C 653.95603,1572.679 652.08287,1587.0996 651.60852,1601.6431 C 651.43546,1606.9491 652.05317,1612.2815 651.58273,1617.5695 C 651.52362,1618.2339 651.16443,1618.8363 650.95528,1619.4698 L 612.58539,1637.4897 z" />
  </g>
</svg>
